<svg xmlns="http://www.w3.org/2000/svg" viewBox="0 0 100 100">
  <rect width="100" height="100" fill="#000000"/>
  <path fill="#FFFFFF" d="M70.4,47.5c-1.8-2.7-4.2-4.8-7.5-6.2c-3.3-1.4-7.1-2.1-11.6-2.1H30v28.4h10.8V52.2h9c1.7,0,3.2,0.2,4.6,0.7c1.4,0.5,2.6,1.1,3.5,1.9c1,0.8,1.8,1.8,2.3,3c0.6,1.2,0.8,2.6,0.8,4.1v1.2c0,1.5-0.3,2.9-0.8,4.1c-0.6,1.2-1.3,2.2-2.3,3c-1,0.8-2.2,1.5-3.5,1.9c-1.4,0.5-2.9,0.7-4.6,0.7h-9v8h9.6c4.5,0,8.4-0.7,11.6-2.1c3.3-1.4,5.7-3.5,7.5-6.2c1.7-2.7,2.6-6,2.6-9.9C73,53.5,72.1,50.2,70.4,47.5z"/>
</svg>
