<?xml version="1.0" encoding="utf-8"?>
<!-- Generator: Adobe Illustrator 27.9.0, SVG Export Plug-In . SVG Version: 6.00 Build 0)  -->
<svg version="1.1" id="Capa_1" xmlns="http://www.w3.org/2000/svg" xmlns:xlink="http://www.w3.org/1999/xlink" x="0px" y="0px"
	 viewBox="0 0 700 225" style="enable-background:new 0 0 700 225;" xml:space="preserve">
<style type="text/css">
	.st0{fill:#FFFFFF;}
</style>
<g>
	<g>
		<g>
			<path class="st0" d="M306.4,195.1c-5.2,0-9.6-0.8-13.2-2.5c-3.6-1.6-6.3-4.1-8.2-7.3c-1.8-3.2-2.8-7.1-2.8-11.7
				c0-6.8,2.1-12.1,6.2-15.8c4.2-3.7,10-5.6,17.6-5.6c4.5,0,8.5,0.5,12,1.6c3.4,1.1,6.1,2.7,8,5c1.9,2.2,2.9,5.1,2.9,8.7h-3.5
				c0-3-0.8-5.4-2.4-7.2c-1.6-1.8-3.9-3.1-6.8-3.8c-2.9-0.8-6.3-1.1-10.2-1.1s-7.3,0.6-10.4,1.8c-3.1,1.2-5.5,3.1-7.2,5.7
				c-1.8,2.6-2.7,5.9-2.7,10v1.4c0,4.3,0.9,7.8,2.7,10.4c1.8,2.6,4.3,4.4,7.4,5.6c3.1,1.1,6.6,1.7,10.6,1.7c3.9,0,7.2-0.4,10.1-1.2
				c2.9-0.8,5.1-2.1,6.7-3.9c1.6-1.8,2.4-4.1,2.4-7h3.5c0,3.6-1,6.5-3,8.7c-2,2.2-4.7,3.9-8.1,4.9
				C314.7,194.6,310.8,195.1,306.4,195.1z"/>
			<path class="st0" d="M352.9,194.4l21.4-41.3h4.3l21.4,41.3h-3.9l-6.1-11.8h-27.3l-6.1,11.8H352.9z M364.3,179.5h24.2l-7.6-14.8
				c-0.3-0.5-0.6-1.1-1-1.8c-0.4-0.7-0.7-1.4-1.1-2.2c-0.4-0.8-0.8-1.6-1.1-2.3c-0.4-0.8-0.7-1.4-1-2h-0.5c-0.4,0.9-0.9,1.9-1.5,3.1
				c-0.6,1.1-1.1,2.2-1.6,3.1c-0.5,1-0.9,1.7-1.1,2.2L364.3,179.5z"/>
			<path class="st0" d="M425.7,194.4v-41.3h28.1c2.5,0,4.7,0.5,6.5,1.6c1.8,1,3.2,2.5,4.2,4.3c1,1.8,1.4,3.9,1.4,6.2
				c0,2.3-0.5,4.4-1.4,6.2c-0.9,1.8-2.3,3.2-4.1,4.3c-1.8,1-3.9,1.6-6.5,1.6h-24.7v17.2H425.7z M429.2,174.2h24.2
				c3,0,5.2-0.8,6.7-2.5c1.5-1.7,2.3-3.8,2.3-6.5c0-1.8-0.4-3.3-1.1-4.7c-0.7-1.4-1.7-2.4-3.1-3.2c-1.3-0.8-2.9-1.1-4.8-1.1h-24.2
				V174.2z"/>
			<path class="st0" d="M491.6,194.4v-41.3h3.5v41.3H491.6z"/>
			<path class="st0" d="M539.3,194.4v-38.2h-19.1v-3.1h41.7v3.1h-19.1v38.2H539.3z"/>
			<path class="st0" d="M574.4,194.4l21.4-41.3h4.3l21.4,41.3h-3.9l-6.1-11.8h-27.3l-6.1,11.8H574.4z M585.8,179.5h24.2l-7.6-14.8
				c-0.3-0.5-0.6-1.1-1-1.8c-0.4-0.7-0.7-1.4-1.1-2.2c-0.4-0.8-0.8-1.6-1.1-2.3c-0.4-0.8-0.7-1.4-1-2h-0.5c-0.4,0.9-0.9,1.9-1.5,3.1
				c-0.6,1.1-1.1,2.2-1.6,3.1c-0.5,1-0.9,1.7-1.1,2.2L585.8,179.5z"/>
			<path class="st0" d="M647.2,194.4v-41.3h3.5v38.2h25.6v3.1H647.2z"/>
		</g>
	</g>
	<g>
		<g>
			<path class="st0" d="M282.4,119.4V46.7h40.6c8.9,0,16.7,1.4,23.1,4.2c6.5,2.8,11.4,6.9,14.9,12.4c3.5,5.4,5.2,12,5.2,19.8
				c0,7.8-1.7,14.4-5.2,19.8c-3.5,5.4-8.4,9.5-14.9,12.3c-6.5,2.8-14.2,4.2-23.1,4.2H282.4z M303.8,103.4h17.9
				c3.4,0,6.4-0.4,9.1-1.3c2.7-0.9,5.1-2.1,7-3.8c2-1.6,3.5-3.6,4.6-6c1.1-2.4,1.6-5.1,1.6-8.1v-2.4c0-3-0.5-5.7-1.6-8.1
				c-1.1-2.4-2.6-4.3-4.6-6c-2-1.6-4.3-2.9-7-3.8c-2.7-0.9-5.8-1.3-9.1-1.3h-17.9V103.4z"/>
			<path class="st0" d="M361.4,119.4l35.7-72.7h24l35.7,72.7h-23.4l-5.5-11.6h-38.9l-5.5,11.6H361.4z M396.3,92c0,0,24.5,0,24.5,0
				c-4.1-9.2-7.4-18.9-11.8-27.9h-0.7C407.7,65.4,396.3,92,396.3,92z"/>
			<path class="st0" d="M459.5,119.4V46.7h33.6c0,0,17.6,46.5,18.2,48.1h0.7c0.4-1.5,18.2-48.1,18.2-48.1h32.7v72.7h-21.5
				c0,0,0.3-51.1,0.3-52.4h-0.8c-0.4,1.3-20.4,52.4-20.4,52.4h-19.7c0,0-20.1-51.4-20.5-52.4h-0.8c0.1,1,0.3,52.4,0.3,52.4H459.5z"
				/>
			<path class="st0" d="M572.8,119.4V46.7h33.6c0,0,17.6,46.5,18.2,48.1h0.7c0.4-1.5,18.2-48.1,18.2-48.1h32.7v72.7h-21.5
				c0,0,0.3-51.1,0.3-52.4h-0.8c-0.4,1.3-20.4,52.4-20.4,52.4h-19.7c0,0-20.1-51.4-20.5-52.4h-0.8c0.1,1,0.3,52.4,0.3,52.4H572.8z"
				/>
		</g>
	</g>
	<g>
		<g>
			<path class="st0" d="M166.4,92.5c-3.5-5.4-8.4-9.6-14.9-12.4c-6.5-2.8-14.2-4.2-23.1-4.2H87.8v56.8h21.5V91.8h17.9
				c3.4,0,6.4,0.4,9.1,1.3c2.7,0.9,5.1,2.1,7,3.8c2,1.6,3.5,3.6,4.6,6c1.1,2.4,1.6,5.1,1.6,8.1v2.4c0,3-0.6,5.7-1.6,8.1
				c-1.1,2.4-2.6,4.4-4.6,6c-2,1.6-4.3,2.9-7,3.8c-2.7,0.9-5.8,1.3-9.1,1.3h-17.9v16h19.1c8.9,0,16.7-1.4,23.1-4.2
				c6.5-2.8,11.4-6.9,14.9-12.3c3.4-5.4,5.2-12,5.2-19.8C171.6,104.5,169.9,97.9,166.4,92.5z"/>
		</g>
		<g>
			<g>
				<path class="st0" d="M71.5,56.3H43.2V28h28.4V56.3z M48.6,50.9h17.5V33.4H48.6V50.9z"/>
			</g>
		</g>
		<g>
			<g>
				<path class="st0" d="M211.2,196.6h-28.4v-28.4h28.4V196.6z M188.2,191.1h17.5v-17.5h-17.5V191.1z"/>
			</g>
		</g>
		<path class="st0" d="M126.6,9.6c-11.3,0-22.2,1.8-32.3,5.2v6.8c10.1-3.6,21-5.6,32.3-5.6c53.3,0,96.4,43.2,96.4,96.4
			c0,11.5-2,22.6-5.7,32.8h6.8c3.5-10.3,5.4-21.3,5.4-32.8C229.5,55.7,183.4,9.6,126.6,9.6z M30.2,112.5c0-11.9,2.1-23.2,6.1-33.7
			h-6.8c-3.7,10.6-5.7,21.9-5.7,33.7c0,56.8,46.1,102.9,102.9,102.9c11.9,0,23.3-2,34-5.8v-6.8c-10.6,4-22,6.2-34,6.2
			C73.3,208.9,30.2,165.8,30.2,112.5z"/>
	</g>
</g>
</svg>
