<svg width="2177" height="574" viewBox="0 0 2177 574" fill="none" xmlns="http://www.w3.org/2000/svg">
<g opacity="0.26">
<path d="M1907.52 21.007C1570.26 131.039 1468.25 253.329 1438.78 346.268C1405.89 449.993 1448.64 563.636 1396.92 570.503C1363.81 574.901 1315.66 532.353 1223.76 439.13C945.058 156.444 928.184 81.5732 824.974 61.7949C680.388 34.0684 613.616 161.891 397.401 158.373C238.599 155.784 99.3432 83.9967 3.11993 20.2818" stroke="#3F3F46" stroke-width="3" stroke-miterlimit="10"/>
<path d="M1918.48 32.0275C1590.61 139.802 1481.03 258.729 1447.15 345.878C1409.29 443.268 1450.88 551.119 1399.38 556.037C1366.27 559.201 1318.99 517.354 1230.18 427.267C960.277 153.532 941.521 77.6698 839.17 58.8471C693.898 32.4885 632.269 169.697 414.348 170.82C409.596 170.845 404.913 170.828 400.211 170.731C244.963 167.436 103.798 95.5667 5.73481 32.1962" stroke="#3F3F46" stroke-width="3" stroke-miterlimit="10"/>
<path d="M1929.39 43.0588C1610.95 148.564 1493.87 263.925 1455.48 345.483C1412.7 436.39 1453.06 538.579 1401.79 541.552C1368.68 543.476 1322.27 502.327 1236.57 415.381C975.522 150.622 954.886 73.5203 853.321 55.8953C707.436 30.5784 650.845 177.585 431.244 183.294C426.426 183.42 421.624 183.547 416.797 183.513C259.232 182.429 110.992 109.019 8.28941 44.138" stroke="#3F3F46" stroke-width="3" stroke-miterlimit="10"/>
<path d="M1940.36 54.0948C1631.31 157.36 1506.88 268.876 1463.85 345.083C1416.28 429.351 1455.25 526.01 1404.24 527.042C1371.1 527.714 1325.61 487.28 1242.99 403.48C990.778 147.673 968.251 69.4935 867.513 52.9325C720.973 28.8425 669.443 185.539 448.174 195.784C443.262 196.012 438.355 196.23 433.443 196.316C273.817 199.074 118.233 122.494 10.8856 56.1045" stroke="#3F3F46" stroke-width="3" stroke-miterlimit="10"/>
<path d="M1951.12 65.585C1651.59 166.525 1520.04 273.915 1472.19 344.998C1420.06 422.441 1457.39 513.66 1406.68 512.759C1373.52 512.174 1328.94 472.47 1249.45 391.846C1006.13 145.103 981.708 65.8682 881.832 50.3677C734.64 27.5226 688.23 193.899 465.373 208.63C460.369 208.953 455.359 209.277 450.314 209.471C288.552 215.205 125.792 136.334 13.8062 68.4416" stroke="#3F3F46" stroke-width="3" stroke-miterlimit="10"/>
<path d="M1961.86 77.0947C1671.86 175.711 1533.45 278.688 1480.5 344.92C1424.16 415.402 1459.52 501.301 1409.09 498.482C1375.9 496.623 1332.27 457.663 1255.89 380.214C1021.48 142.541 995.146 62.2649 896.141 47.8087C748.308 26.2267 707.01 202.332 482.557 221.473C477.458 221.909 472.359 222.351 467.192 222.627C303.293 231.314 133.325 150.181 16.7317 80.7918" stroke="#3F3F46" stroke-width="3" stroke-miterlimit="10"/>
<path d="M1972.61 88.6147C1692.15 184.915 1547.23 283.188 1488.84 344.848C1428.77 408.286 1461.62 488.919 1411.53 484.192C1378.3 481.057 1335.6 442.833 1262.36 368.579C1036.85 139.983 1008.6 58.6709 910.48 45.2531C761.977 24.9456 725.822 210.821 499.772 234.34C494.56 234.881 489.381 235.435 484.11 235.803C318.08 247.424 140.908 164.043 19.6899 93.1661" stroke="#3F3F46" stroke-width="3" stroke-miterlimit="10"/>
<path d="M1983.36 100.145C1712.44 194.122 1578.72 297.45 1497.17 344.777C1453.21 408.922 1463.71 476.512 1413.96 469.896C1380.68 465.469 1338.93 428.017 1268.81 356.916C1052.22 137.403 1022.05 55.0719 924.809 42.6763C775.643 23.6648 744.639 219.348 516.983 247.2C511.689 247.847 506.393 248.51 501.003 248.977C332.825 263.504 148.436 177.917 22.604 105.536" stroke="#3F3F46" stroke-width="3" stroke-miterlimit="10"/>
<path d="M1994.12 111.691C1732.74 203.344 1594.5 303.941 1505.51 344.713C1459.98 403.171 1465.82 464.087 1416.4 455.594C1383.07 449.868 1342.28 413.195 1275.28 345.286C1067.64 134.863 1035.52 51.5219 939.159 40.1391C789.327 22.442 763.495 227.968 534.213 260.113C528.828 260.869 523.436 261.642 517.926 262.203C347.594 279.616 156.034 191.837 25.5503 117.96" stroke="#3F3F46" stroke-width="3" stroke-miterlimit="10"/>
<path d="M2004.86 123.244C1753.04 212.57 1610.27 310.427 1513.83 344.649C1466.73 397.418 1467.9 451.637 1418.81 441.284C1385.44 434.247 1345.6 398.351 1281.73 333.632C1082.98 132.292 1048.96 47.9682 953.493 37.5889C802.981 21.2208 782.35 236.617 551.42 273.025C545.944 273.886 540.449 274.765 534.826 275.425C362.336 295.708 163.584 205.757 28.4663 130.38" stroke="#3F3F46" stroke-width="3" stroke-miterlimit="10"/>
<path d="M2015.61 134.812C1773.34 221.807 1626.06 316.927 1522.16 344.586C1473.49 391.658 1469.99 439.163 1421.25 426.964C1387.83 418.602 1348.93 383.496 1288.2 321.981C1098.38 129.755 1062.43 44.4337 967.854 35.0417C816.666 20.0279 801.251 245.319 568.655 285.951C563.083 286.926 557.49 287.903 551.758 288.666C377.091 311.802 171.156 219.694 31.4031 142.821" stroke="#3F3F46" stroke-width="3" stroke-miterlimit="10"/>
<path d="M2026.34 146.391C1793.66 231.047 1641.82 323.43 1530.47 344.512C1480.23 385.883 1472.08 426.658 1423.67 412.619C1390.21 402.92 1352.26 368.623 1294.66 310.287C1113.78 127.171 1075.89 40.8799 982.196 32.4656C830.323 18.8208 820.159 254.019 585.877 298.856C580.208 299.94 574.539 301.024 568.67 301.872C391.821 327.849 178.708 233.605 34.3183 155.232" stroke="#3F3F46" stroke-width="3" stroke-miterlimit="10"/>
<path d="M2037.08 157.976C1813.97 240.295 1657.62 329.936 1538.81 344.463C1486.99 380.13 1474.19 414.152 1426.09 398.292C1392.6 387.249 1355.59 353.761 1301.12 298.62C1129.15 124.621 1089.35 37.3708 996.567 29.9214C844.012 17.6741 839.125 262.806 603.117 311.807C597.362 313.003 591.569 314.186 585.587 315.147C406.541 343.938 186.265 247.594 37.2334 167.707" stroke="#3F3F46" stroke-width="3" stroke-miterlimit="10"/>
<path d="M2047.78 169.558C1834.28 249.537 1673.39 336.429 1547.12 344.381C1493.73 374.338 1476.3 401.603 1428.5 383.924C1394.98 371.529 1358.9 338.864 1307.57 286.921C1144.57 122.044 1102.8 33.8378 1010.93 27.3506C857.684 16.519 858.108 271.606 620.359 324.739C614.509 326.048 608.612 327.334 602.533 328.394C421.285 360.007 193.843 261.533 40.1417 180.16" stroke="#3F3F46" stroke-width="3" stroke-miterlimit="10"/>
<path d="M2058.49 181.154C1854.57 258.788 1689.15 342.932 1555.41 344.31C1500.46 368.552 1478.41 389.042 1430.89 369.539C1397.37 355.788 1362.21 323.952 1314.03 275.205C1159.98 119.462 1116.28 30.3314 1025.3 24.7796C871.382 15.3853 877.13 280.392 637.618 337.677C631.676 339.096 625.676 340.48 619.488 341.643C436.015 376.059 201.428 275.487 43.1129 192.617" stroke="#3F3F46" stroke-width="3" stroke-miterlimit="10"/>
<path d="M2069.17 192.737C1874.86 268.022 1704.92 349.414 1563.72 344.212C1507.19 362.735 1480.54 376.44 1433.3 355.137C1399.78 340.023 1365.53 309.015 1320.47 263.472C1175.37 116.875 1129.74 26.8211 1039.65 22.1984C885.06 14.266 896.166 289.223 654.862 350.588C648.83 352.12 642.726 353.605 636.398 354.866C450.729 392.093 209.006 289.44 46.0525 205.085" stroke="#3F3F46" stroke-width="3" stroke-miterlimit="10"/>
<path d="M2079.04 203.818C1894.47 276.667 1720.12 355.213 1571.55 343.432C1513.52 356.226 1482.27 363.117 1435.31 340.022C1401.83 323.552 1368.49 293.401 1326.59 251.103C1190.5 113.749 1142.95 22.853 1053.81 19.1459C898.649 12.6879 915.185 297.358 672.232 362.75C666.113 364.397 659.91 365.975 653.499 367.338C465.686 407.262 216.953 302.591 49.4587 216.776" stroke="#3F3F46" stroke-width="3" stroke-miterlimit="10"/>
<path d="M2088.9 214.896C1914.07 285.316 1735.33 361.037 1579.39 342.656C1519.81 349.708 1484.03 349.815 1437.35 324.93C1403.9 307.12 1371.46 277.808 1332.72 238.729C1205.64 110.614 1156.17 18.8852 1067.98 16.0759C912.246 11.1012 934.231 305.469 689.606 374.842C683.407 376.603 677.099 378.275 670.583 379.739C480.643 422.395 224.956 315.717 52.8934 228.445" stroke="#3F3F46" stroke-width="3" stroke-miterlimit="10"/>
<path d="M2098.76 225.942C1933.66 293.914 1746 324.047 1587.21 341.854C1527.8 348.518 1485.79 336.493 1439.35 309.819C1405.96 290.654 1374.41 262.197 1338.82 226.347C1220.75 107.454 1169.37 14.9146 1082.13 12.9924C925.839 9.55086 953.285 313.604 706.967 386.956C700.686 388.824 694.263 390.593 687.649 392.158C495.578 437.52 232.948 328.844 56.3177 240.137" stroke="#3F3F46" stroke-width="3" stroke-miterlimit="10"/>
<path d="M2108.65 236.98C1953.26 302.557 1767.92 363.036 1595.06 341.079C1532.7 333.157 1487.58 323.212 1441.38 294.747C1408.05 274.227 1377.39 246.629 1344.95 214.001C1235.88 104.327 1182.59 10.9838 1096.29 9.93796C939.454 8.03546 972.371 321.757 724.336 399.064C717.964 401.047 711.44 402.9 704.718 404.572C510.317 452.373 240.913 341.964 59.736 251.81" stroke="#3F3F46" stroke-width="3" stroke-miterlimit="10"/>
<path d="M2118.5 248.013C1972.83 311.175 1782.52 373.652 1602.87 340.302C1539.15 328.469 1489.35 309.938 1443.38 279.688C1410.12 257.815 1380.33 231.066 1351.04 201.665C1250.96 101.199 1195.74 6.82434 1110.41 6.87905C953.107 6.98077 991.661 330.154 741.659 411.162C735.215 413.266 728.579 415.204 721.752 416.978C525.276 467.598 248.861 355.081 63.1563 263.484" stroke="#3F3F46" stroke-width="3" stroke-miterlimit="10"/>
<path d="M2128.39 259.036C1992.42 319.784 1796.1 384.191 1610.71 339.524C1331.23 272.176 1266.64 2.69512 1124.54 3.82709C962.556 5.1162 1012.96 355.592 738.794 429.38C540.254 482.813 256.803 368.19 66.5775 275.143" stroke="#3F3F46" stroke-width="3" stroke-miterlimit="10"/>
</g>
</svg>
